{
	"patcher" : 	{
		"fileversion" : 1,
		"appversion" : 		{
			"major" : 8,
			"minor" : 1,
			"revision" : 11,
			"architecture" : "x64",
			"modernui" : 1
		}
,
		"classnamespace" : "box",
		"rect" : [ 34.0, 87.0, 773.0, 805.0 ],
		"bglocked" : 0,
		"openinpresentation" : 0,
		"default_fontsize" : 12.0,
		"default_fontface" : 0,
		"default_fontname" : "Arial",
		"gridonopen" : 1,
		"gridsize" : [ 15.0, 15.0 ],
		"gridsnaponopen" : 1,
		"objectsnaponopen" : 1,
		"statusbarvisible" : 2,
		"toolbarvisible" : 1,
		"lefttoolbarpinned" : 0,
		"toptoolbarpinned" : 0,
		"righttoolbarpinned" : 0,
		"bottomtoolbarpinned" : 0,
		"toolbars_unpinned_last_save" : 0,
		"tallnewobj" : 0,
		"boxanimatetime" : 200,
		"enablehscroll" : 1,
		"enablevscroll" : 1,
		"devicewidth" : 0.0,
		"description" : "",
		"digest" : "",
		"tags" : "",
		"style" : "",
		"subpatcher_template" : "",
		"showontab" : 1,
		"assistshowspatchername" : 0,
		"boxes" : [ 			{
				"box" : 				{
					"id" : "obj-15",
					"linecount" : 4,
					"maxclass" : "comment",
					"numinlets" : 1,
					"numoutlets" : 0,
					"patching_rect" : [ 305.0, 228.0, 150.0, 60.0 ],
					"text" : "defaults to\n- @ip: 127.0.0.1\n- @portsend: 57121\n- @portrecv: 57122"
				}

			}
, 			{
				"box" : 				{
					"color" : [ 0.0, 0.803921568627451, 1.0, 1.0 ],
					"id" : "obj-28",
					"maxclass" : "newobj",
					"numinlets" : 1,
					"numoutlets" : 2,
					"outlettype" : [ "", "" ],
					"patching_rect" : [ 74.5, 442.0, 302.0, 22.0 ],
					"text" : "sw.shared-state globals"
				}

			}
, 			{
				"box" : 				{
					"fontname" : "Arial",
					"fontsize" : 13.0,
					"id" : "obj-7",
					"linecount" : 6,
					"maxclass" : "comment",
					"numinlets" : 1,
					"numoutlets" : 0,
					"patching_rect" : [ 74.5, 344.0, 302.0, 94.0 ],
					"text" : "Once the <sw.state-manager> object is in your patch the OSC connection with the soundworks server is created, you can then attach to any global state created by the soundwork application (here \"globals\"), and thus monitor its changes and control it:"
				}

			}
, 			{
				"box" : 				{
					"id" : "obj-4",
					"maxclass" : "newobj",
					"numinlets" : 0,
					"numoutlets" : 0,
					"patcher" : 					{
						"fileversion" : 1,
						"appversion" : 						{
							"major" : 8,
							"minor" : 1,
							"revision" : 11,
							"architecture" : "x64",
							"modernui" : 1
						}
,
						"classnamespace" : "box",
						"rect" : [ 0.0, 26.0, 773.0, 779.0 ],
						"bglocked" : 0,
						"openinpresentation" : 0,
						"default_fontsize" : 12.0,
						"default_fontface" : 0,
						"default_fontname" : "Arial",
						"gridonopen" : 1,
						"gridsize" : [ 15.0, 15.0 ],
						"gridsnaponopen" : 1,
						"objectsnaponopen" : 1,
						"statusbarvisible" : 2,
						"toolbarvisible" : 1,
						"lefttoolbarpinned" : 0,
						"toptoolbarpinned" : 0,
						"righttoolbarpinned" : 0,
						"bottomtoolbarpinned" : 0,
						"toolbars_unpinned_last_save" : 0,
						"tallnewobj" : 0,
						"boxanimatetime" : 200,
						"enablehscroll" : 1,
						"enablevscroll" : 1,
						"devicewidth" : 0.0,
						"description" : "",
						"digest" : "",
						"tags" : "",
						"style" : "",
						"subpatcher_template" : "Default Max 7",
						"showontab" : 1,
						"assistshowspatchername" : 0,
						"boxes" : [ 							{
								"box" : 								{
									"fontname" : "Arial",
									"fontsize" : 13.0,
									"id" : "obj-24",
									"maxclass" : "comment",
									"numinlets" : 1,
									"numoutlets" : 0,
									"patching_rect" : [ 10.0, 55.0, 302.0, 21.0 ],
									"text" : "a way to communicate with Soundworks via OSC"
								}

							}
, 							{
								"box" : 								{
									"fontname" : "Arial",
									"fontsize" : 13.0,
									"id" : "obj-63",
									"maxclass" : "comment",
									"numinlets" : 1,
									"numoutlets" : 0,
									"patching_rect" : [ 10.0, 81.0, 455.0, 21.0 ],
									"text" : "Working with states - the \"dict\" way",
									"textcolor" : [ 0.501961, 0.501961, 0.501961, 1.0 ]
								}

							}
, 							{
								"box" : 								{
									"border" : 0,
									"filename" : "helpdetails.js",
									"id" : "obj-11",
									"ignoreclick" : 1,
									"jsarguments" : [ "Soundworks API" ],
									"maxclass" : "jsui",
									"numinlets" : 1,
									"numoutlets" : 1,
									"outlettype" : [ "" ],
									"parameter_enable" : 0,
									"patching_rect" : [ 10.0, 10.0, 359.0, 53.0 ]
								}

							}
, 							{
								"box" : 								{
									"fontname" : "Arial",
									"fontsize" : 13.0,
									"id" : "obj-2",
									"maxclass" : "comment",
									"numinlets" : 1,
									"numoutlets" : 0,
									"patching_rect" : [ 783.0, 251.0, 138.25, 21.0 ],
									"text" : "....other messages"
								}

							}
, 							{
								"box" : 								{
									"bubble" : 1,
									"id" : "obj-1",
									"maxclass" : "comment",
									"numinlets" : 1,
									"numoutlets" : 0,
									"patching_rect" : [ 572.25, 370.0, 181.0, 24.0 ],
									"text" : "parse with dict method "
								}

							}
, 							{
								"box" : 								{
									"id" : "obj-4",
									"maxclass" : "newobj",
									"numinlets" : 2,
									"numoutlets" : 4,
									"outlettype" : [ "dictionary", "", "", "" ],
									"patching_rect" : [ 18.25, 622.0, 110.0, 22.0 ],
									"saved_object_attributes" : 									{
										"embed" : 0,
										"parameter_enable" : 0,
										"parameter_mappable" : 0
									}
,
									"text" : "dict globals_values"
								}

							}
, 							{
								"box" : 								{
									"bubble" : 1,
									"id" : "obj-3",
									"linecount" : 3,
									"maxclass" : "comment",
									"numinlets" : 1,
									"numoutlets" : 0,
									"patching_rect" : [ 134.5, 607.5, 181.0, 51.0 ],
									"text" : "access values with the <schema_name>_values dict !"
								}

							}
, 							{
								"box" : 								{
									"id" : "obj-92",
									"maxclass" : "button",
									"numinlets" : 1,
									"numoutlets" : 1,
									"outlettype" : [ "bang" ],
									"parameter_enable" : 0,
									"patching_rect" : [ 505.25, 222.0, 24.0, 24.0 ]
								}

							}
, 							{
								"box" : 								{
									"data" : 									{
										"config" : 										{
											"x" : 12,
											"y" : 654
										}

									}
,
									"id" : "obj-90",
									"maxclass" : "newobj",
									"numinlets" : 2,
									"numoutlets" : 4,
									"outlettype" : [ "dictionary", "", "", "" ],
									"patching_rect" : [ 505.25, 278.0, 89.0, 22.0 ],
									"saved_object_attributes" : 									{
										"embed" : 1,
										"parameter_enable" : 0,
										"parameter_mappable" : 0
									}
,
									"text" : "dict @embed 1"
								}

							}
, 							{
								"box" : 								{
									"id" : "obj-87",
									"maxclass" : "newobj",
									"numinlets" : 1,
									"numoutlets" : 4,
									"outlettype" : [ "", "", "", "" ],
									"patching_rect" : [ 837.0, 531.5, 62.0, 22.0 ],
									"saved_object_attributes" : 									{
										"embed" : 0,
										"precision" : 6
									}
,
									"text" : "coll magic"
								}

							}
, 							{
								"box" : 								{
									"id" : "obj-86",
									"maxclass" : "message",
									"numinlets" : 2,
									"numoutlets" : 1,
									"outlettype" : [ "" ],
									"patching_rect" : [ 654.75, 483.0, 111.0, 22.0 ],
									"text" : "push_to_coll magic"
								}

							}
, 							{
								"box" : 								{
									"bubble" : 1,
									"id" : "obj-85",
									"maxclass" : "comment",
									"numinlets" : 1,
									"numoutlets" : 0,
									"patching_rect" : [ 867.25, 483.0, 181.0, 24.0 ],
									"text" : "or use any dict function"
								}

							}
, 							{
								"box" : 								{
									"id" : "obj-84",
									"linecount" : 2,
									"maxclass" : "message",
									"numinlets" : 2,
									"numoutlets" : 1,
									"outlettype" : [ "" ],
									"patching_rect" : [ 767.0, 565.0, 50.0, 35.0 ],
									"text" : "config::x 44"
								}

							}
, 							{
								"box" : 								{
									"id" : "obj-81",
									"maxclass" : "dict.view",
									"numinlets" : 1,
									"numoutlets" : 0,
									"patching_rect" : [ 545.25, 544.0, 100.0, 100.0 ]
								}

							}
, 							{
								"box" : 								{
									"id" : "obj-80",
									"maxclass" : "slider",
									"numinlets" : 1,
									"numoutlets" : 1,
									"outlettype" : [ "" ],
									"parameter_enable" : 0,
									"patching_rect" : [ 428.0, 446.0, 20.0, 140.0 ]
								}

							}
, 							{
								"box" : 								{
									"id" : "obj-78",
									"maxclass" : "newobj",
									"numinlets" : 6,
									"numoutlets" : 1,
									"outlettype" : [ "" ],
									"patching_rect" : [ 428.0, 410.0, 101.0, 22.0 ],
									"text" : "scale -80 6 0 127"
								}

							}
, 							{
								"box" : 								{
									"id" : "obj-73",
									"maxclass" : "dict.view",
									"numinlets" : 1,
									"numoutlets" : 0,
									"patching_rect" : [ 18.25, 377.0, 154.0, 152.0 ]
								}

							}
, 							{
								"box" : 								{
									"bubble" : 1,
									"id" : "obj-72",
									"linecount" : 3,
									"maxclass" : "comment",
									"numinlets" : 1,
									"numoutlets" : 0,
									"patching_rect" : [ 187.25, 405.5, 141.0, 51.0 ],
									"text" : "output is a dict containing all the state's values"
								}

							}
, 							{
								"box" : 								{
									"bubble" : 1,
									"id" : "obj-70",
									"maxclass" : "comment",
									"numinlets" : 1,
									"numoutlets" : 0,
									"patching_rect" : [ 329.25, 278.0, 152.0, 24.0 ],
									"text" : "see dict help for more !"
								}

							}
, 							{
								"box" : 								{
									"bubble" : 1,
									"bubbleside" : 2,
									"id" : "obj-69",
									"linecount" : 2,
									"maxclass" : "comment",
									"numinlets" : 1,
									"numoutlets" : 0,
									"patching_rect" : [ 21.25, 129.0, 152.0, 52.0 ],
									"text" : "send a dict to the shared state object"
								}

							}
, 							{
								"box" : 								{
									"id" : "obj-68",
									"maxclass" : "toggle",
									"numinlets" : 1,
									"numoutlets" : 1,
									"outlettype" : [ "int" ],
									"parameter_enable" : 0,
									"patching_rect" : [ 377.25, 410.0, 24.0, 24.0 ]
								}

							}
, 							{
								"box" : 								{
									"id" : "obj-66",
									"maxclass" : "newobj",
									"numinlets" : 1,
									"numoutlets" : 3,
									"outlettype" : [ "", "", "" ],
									"patching_rect" : [ 377.25, 370.0, 187.0, 22.0 ],
									"text" : "dict.unpack mute: volume: config:"
								}

							}
, 							{
								"box" : 								{
									"id" : "obj-62",
									"maxclass" : "message",
									"numinlets" : 2,
									"numoutlets" : 1,
									"outlettype" : [ "" ],
									"patching_rect" : [ 781.0, 483.0, 73.0, 22.0 ],
									"text" : "get config::x"
								}

							}
, 							{
								"box" : 								{
									"id" : "obj-60",
									"maxclass" : "newobj",
									"numinlets" : 2,
									"numoutlets" : 4,
									"outlettype" : [ "dictionary", "", "", "" ],
									"patching_rect" : [ 767.0, 531.5, 50.5, 22.0 ],
									"saved_object_attributes" : 									{
										"embed" : 0,
										"parameter_enable" : 0,
										"parameter_mappable" : 0
									}
,
									"text" : "dict"
								}

							}
, 							{
								"box" : 								{
									"id" : "obj-56",
									"maxclass" : "message",
									"numinlets" : 2,
									"numoutlets" : 1,
									"outlettype" : [ "" ],
									"patching_rect" : [ 783.0, 278.0, 69.0, 22.0 ],
									"text" : "getSchema"
								}

							}
, 							{
								"box" : 								{
									"id" : "obj-53",
									"maxclass" : "dict.view",
									"numinlets" : 1,
									"numoutlets" : 0,
									"patching_rect" : [ 850.25, 353.5, 105.0, 84.0 ]
								}

							}
, 							{
								"box" : 								{
									"id" : "obj-39",
									"maxclass" : "newobj",
									"numinlets" : 6,
									"numoutlets" : 1,
									"outlettype" : [ "" ],
									"patching_rect" : [ 91.25, 232.75, 107.0, 22.0 ],
									"text" : "scale 0 127 -80. 6."
								}

							}
, 							{
								"box" : 								{
									"id" : "obj-38",
									"maxclass" : "newobj",
									"numinlets" : 2,
									"numoutlets" : 1,
									"outlettype" : [ "float" ],
									"patching_rect" : [ 18.25, 232.75, 39.0, 22.0 ],
									"text" : "/ 127."
								}

							}
, 							{
								"box" : 								{
									"id" : "obj-35",
									"maxclass" : "slider",
									"numinlets" : 1,
									"numoutlets" : 1,
									"outlettype" : [ "" ],
									"parameter_enable" : 0,
									"patching_rect" : [ 18.25, 184.0, 164.0, 26.5 ]
								}

							}
, 							{
								"box" : 								{
									"id" : "obj-33",
									"maxclass" : "newobj",
									"numinlets" : 2,
									"numoutlets" : 1,
									"outlettype" : [ "dictionary" ],
									"patching_rect" : [ 18.25, 270.0, 131.0, 22.0 ],
									"text" : "dict.pack gain: volume:"
								}

							}
, 							{
								"box" : 								{
									"id" : "obj-31",
									"maxclass" : "newobj",
									"numinlets" : 2,
									"numoutlets" : 1,
									"outlettype" : [ "" ],
									"patching_rect" : [ 226.25, 217.0, 29.5, 22.0 ],
									"text" : "pak"
								}

							}
, 							{
								"box" : 								{
									"id" : "obj-29",
									"maxclass" : "message",
									"numinlets" : 2,
									"numoutlets" : 1,
									"outlettype" : [ "" ],
									"patching_rect" : [ 226.25, 251.0, 210.0, 22.0 ],
									"text" : "set config::x $1, set config::y $2, bang"
								}

							}
, 							{
								"box" : 								{
									"data" : 									{
										"config" : 										{
											"x" : 55,
											"y" : 48,
											"z" : 123
										}

									}
,
									"id" : "obj-23",
									"maxclass" : "newobj",
									"numinlets" : 2,
									"numoutlets" : 4,
									"outlettype" : [ "dictionary", "", "", "" ],
									"patching_rect" : [ 226.25, 278.0, 89.0, 22.0 ],
									"saved_object_attributes" : 									{
										"embed" : 1,
										"parameter_enable" : 0,
										"parameter_mappable" : 0
									}
,
									"text" : "dict @embed 1"
								}

							}
, 							{
								"box" : 								{
									"id" : "obj-22",
									"maxclass" : "slider",
									"numinlets" : 1,
									"numoutlets" : 1,
									"outlettype" : [ "" ],
									"parameter_enable" : 0,
									"patching_rect" : [ 251.75, 176.0, 149.0, 31.0 ]
								}

							}
, 							{
								"box" : 								{
									"id" : "obj-20",
									"maxclass" : "slider",
									"numinlets" : 1,
									"numoutlets" : 1,
									"outlettype" : [ "" ],
									"parameter_enable" : 0,
									"patching_rect" : [ 226.25, 139.5, 168.0, 28.0 ]
								}

							}
, 							{
								"box" : 								{
									"id" : "obj-9",
									"maxclass" : "message",
									"numinlets" : 2,
									"numoutlets" : 1,
									"outlettype" : [ "" ],
									"patching_rect" : [ 860.25, 278.0, 61.0, 22.0 ],
									"text" : "getValues"
								}

							}
, 							{
								"box" : 								{
									"color" : [ 0.0, 0.803921568627451, 1.0, 1.0 ],
									"id" : "obj-28",
									"maxclass" : "newobj",
									"numinlets" : 1,
									"numoutlets" : 2,
									"outlettype" : [ "", "" ],
									"patching_rect" : [ 18.25, 320.0, 937.0, 22.0 ],
									"text" : "sw.shared-state globals"
								}

							}
 ],
						"lines" : [ 							{
								"patchline" : 								{
									"destination" : [ "obj-31", 0 ],
									"source" : [ "obj-20", 0 ]
								}

							}
, 							{
								"patchline" : 								{
									"destination" : [ "obj-31", 1 ],
									"source" : [ "obj-22", 0 ]
								}

							}
, 							{
								"patchline" : 								{
									"destination" : [ "obj-28", 0 ],
									"midpoints" : [ 235.75, 309.5, 27.75, 309.5 ],
									"source" : [ "obj-23", 0 ]
								}

							}
, 							{
								"patchline" : 								{
									"destination" : [ "obj-53", 0 ],
									"source" : [ "obj-28", 1 ]
								}

							}
, 							{
								"patchline" : 								{
									"destination" : [ "obj-60", 0 ],
									"midpoints" : [ 27.75, 353.75, 776.5, 353.75 ],
									"order" : 0,
									"source" : [ "obj-28", 0 ]
								}

							}
, 							{
								"patchline" : 								{
									"destination" : [ "obj-66", 0 ],
									"midpoints" : [ 27.75, 354.5, 386.75, 354.5 ],
									"order" : 1,
									"source" : [ "obj-28", 0 ]
								}

							}
, 							{
								"patchline" : 								{
									"destination" : [ "obj-73", 0 ],
									"midpoints" : [ 27.75, 352.0, 27.75, 352.0 ],
									"order" : 2,
									"source" : [ "obj-28", 0 ]
								}

							}
, 							{
								"patchline" : 								{
									"destination" : [ "obj-23", 0 ],
									"source" : [ "obj-29", 0 ]
								}

							}
, 							{
								"patchline" : 								{
									"destination" : [ "obj-29", 0 ],
									"source" : [ "obj-31", 0 ]
								}

							}
, 							{
								"patchline" : 								{
									"destination" : [ "obj-28", 0 ],
									"source" : [ "obj-33", 0 ]
								}

							}
, 							{
								"patchline" : 								{
									"destination" : [ "obj-38", 0 ],
									"order" : 1,
									"source" : [ "obj-35", 0 ]
								}

							}
, 							{
								"patchline" : 								{
									"destination" : [ "obj-39", 0 ],
									"order" : 0,
									"source" : [ "obj-35", 0 ]
								}

							}
, 							{
								"patchline" : 								{
									"destination" : [ "obj-33", 0 ],
									"source" : [ "obj-38", 0 ]
								}

							}
, 							{
								"patchline" : 								{
									"destination" : [ "obj-33", 1 ],
									"source" : [ "obj-39", 0 ]
								}

							}
, 							{
								"patchline" : 								{
									"destination" : [ "obj-28", 0 ],
									"midpoints" : [ 792.5, 309.5, 27.75, 309.5 ],
									"source" : [ "obj-56", 0 ]
								}

							}
, 							{
								"patchline" : 								{
									"destination" : [ "obj-84", 1 ],
									"source" : [ "obj-60", 1 ]
								}

							}
, 							{
								"patchline" : 								{
									"destination" : [ "obj-60", 0 ],
									"source" : [ "obj-62", 0 ]
								}

							}
, 							{
								"patchline" : 								{
									"destination" : [ "obj-68", 0 ],
									"source" : [ "obj-66", 0 ]
								}

							}
, 							{
								"patchline" : 								{
									"destination" : [ "obj-78", 0 ],
									"source" : [ "obj-66", 1 ]
								}

							}
, 							{
								"patchline" : 								{
									"destination" : [ "obj-81", 0 ],
									"source" : [ "obj-66", 2 ]
								}

							}
, 							{
								"patchline" : 								{
									"destination" : [ "obj-80", 0 ],
									"source" : [ "obj-78", 0 ]
								}

							}
, 							{
								"patchline" : 								{
									"destination" : [ "obj-60", 0 ],
									"source" : [ "obj-86", 0 ]
								}

							}
, 							{
								"patchline" : 								{
									"destination" : [ "obj-28", 0 ],
									"midpoints" : [ 869.75, 309.5, 27.75, 309.5 ],
									"source" : [ "obj-9", 0 ]
								}

							}
, 							{
								"patchline" : 								{
									"destination" : [ "obj-28", 0 ],
									"midpoints" : [ 514.75, 309.5, 27.75, 309.5 ],
									"source" : [ "obj-90", 0 ]
								}

							}
, 							{
								"patchline" : 								{
									"destination" : [ "obj-90", 0 ],
									"source" : [ "obj-92", 0 ]
								}

							}
 ],
						"styles" : [ 							{
								"name" : "default_style",
								"newobj" : 								{
									"textcolor_inverse" : [ 0.0, 0.0, 0.0, 1.0 ],
									"accentcolor" : [ 0.65098, 0.666667, 0.662745, 1.0 ],
									"bgcolor" : [ 1.0, 1.0, 1.0, 1.0 ]
								}
,
								"button" : 								{
									"color" : [ 0.960784, 0.827451, 0.156863, 1.0 ],
									"bgcolor" : [ 0.682032, 0.698052, 0.748716, 1.0 ]
								}
,
								"toggle" : 								{
									"color" : [ 0.0, 0.0, 0.0, 1.0 ],
									"bgcolor" : [ 0.636487, 0.648652, 0.683149, 1.0 ],
									"elementcolor" : [ 0.786675, 0.801885, 0.845022, 1.0 ]
								}
,
								"parentstyle" : "",
								"multi" : 1
							}
, 							{
								"name" : "default_style-1",
								"newobj" : 								{
									"textcolor_inverse" : [ 0.0, 0.0, 0.0, 1.0 ],
									"accentcolor" : [ 0.65098, 0.666667, 0.662745, 1.0 ],
									"bgcolor" : [ 1.0, 1.0, 1.0, 1.0 ]
								}
,
								"button" : 								{
									"color" : [ 0.960784, 0.827451, 0.156863, 1.0 ],
									"bgcolor" : [ 0.682032, 0.698052, 0.748716, 1.0 ]
								}
,
								"toggle" : 								{
									"color" : [ 0.0, 0.0, 0.0, 1.0 ],
									"bgcolor" : [ 0.636487, 0.648652, 0.683149, 1.0 ],
									"elementcolor" : [ 0.786675, 0.801885, 0.845022, 1.0 ]
								}
,
								"parentstyle" : "",
								"multi" : 0
							}
, 							{
								"name" : "master_style",
								"message" : 								{
									"textcolor_inverse" : [ 0.0, 0.0, 0.0, 1.0 ],
									"bgfillcolor" : 									{
										"type" : "gradient",
										"color1" : [ 0.786675, 0.801885, 0.845022, 1.0 ],
										"color2" : [ 0.65098, 0.666667, 0.662745, 1.0 ],
										"color" : [ 0.290196, 0.309804, 0.301961, 1.0 ],
										"angle" : 270.0,
										"proportion" : 0.39,
										"autogradient" : 0
									}

								}
,
								"attrui" : 								{
									"textcolor_inverse" : [ 0.0, 0.0, 0.0, 1.0 ],
									"bgcolor" : [ 0.786675, 0.801885, 0.845022, 1.0 ]
								}
,
								"newobj" : 								{
									"textcolor_inverse" : [ 0.0, 0.0, 0.0, 1.0 ],
									"accentcolor" : [ 0.65098, 0.666667, 0.662745, 1.0 ],
									"bgcolor" : [ 1.0, 1.0, 1.0, 1.0 ]
								}
,
								"umenu" : 								{
									"bgfillcolor" : 									{
										"type" : "gradient",
										"color1" : [ 0.786675, 0.801885, 0.845022, 1.0 ],
										"color2" : [ 0.65098, 0.666667, 0.662745, 1.0 ],
										"color" : [ 0.290196, 0.309804, 0.301961, 1.0 ],
										"angle" : 270.0,
										"proportion" : 0.39,
										"autogradient" : 0
									}

								}
,
								"ezadc~" : 								{
									"color" : [ 0.0, 0.0, 0.0, 1.0 ],
									"bgcolor" : [ 0.65098, 0.666667, 0.662745, 1.0 ],
									"elementcolor" : [ 0.862745, 0.870588, 0.878431, 1.0 ]
								}
,
								"kslider" : 								{
									"color" : [ 1.0, 1.0, 1.0, 1.0 ],
									"elementcolor" : [ 0.65098, 0.666667, 0.662745, 1.0 ]
								}
,
								"slider" : 								{
									"color" : [ 0.461105, 0.492646, 0.591878, 1.0 ],
									"bgcolor" : [ 1.0, 1.0, 1.0, 1.0 ],
									"elementcolor" : [ 0.65098, 0.666667, 0.662745, 1.0 ]
								}
,
								"ezdac~" : 								{
									"color" : [ 0.0, 0.0, 0.0, 1.0 ],
									"bgcolor" : [ 0.65098, 0.666667, 0.662745, 1.0 ],
									"elementcolor" : [ 0.862745, 0.870588, 0.878431, 1.0 ]
								}
,
								"button" : 								{
									"color" : [ 1.0, 0.95051, 0.0, 1.0 ],
									"bgcolor" : [ 0.682032, 0.698052, 0.748716, 1.0 ],
									"elementcolor" : [ 0.786675, 0.801885, 0.845022, 1.0 ]
								}
,
								"function" : 								{
									"color" : [ 0.0, 0.0, 0.0, 1.0 ],
									"bgcolor" : [ 0.65098, 0.666667, 0.662745, 1.0 ]
								}
,
								"multislider" : 								{
									"color" : [ 0.0, 0.0, 0.0, 1.0 ],
									"bgcolor" : [ 1.0, 1.0, 1.0, 1.0 ]
								}
,
								"toggle" : 								{
									"color" : [ 0.0, 0.0, 0.0, 1.0 ],
									"bgcolor" : [ 0.682032, 0.698052, 0.748716, 1.0 ],
									"elementcolor" : [ 0.65098, 0.666667, 0.662745, 1.0 ]
								}
,
								"gain~" : 								{
									"color" : [ 1.0, 0.861448, 0.16921, 1.0 ],
									"elementcolor" : [ 0.65098, 0.666667, 0.662745, 1.0 ]
								}
,
								"parentstyle" : "",
								"multi" : 1
							}
 ]
					}
,
					"patching_rect" : [ 671.0, 54.0, 115.0, 22.0 ],
					"saved_object_attributes" : 					{
						"description" : "",
						"digest" : "",
						"globalpatchername" : "",
						"tags" : ""
					}
,
					"text" : "p \"working with dict\""
				}

			}
, 			{
				"box" : 				{
					"bubble" : 1,
					"bubbleside" : 0,
					"id" : "obj-13",
					"linecount" : 2,
					"maxclass" : "comment",
					"numinlets" : 1,
					"numoutlets" : 0,
					"patching_rect" : [ 74.5, 228.0, 143.0, 52.0 ],
					"text" : "double-click me to see attached schemas !"
				}

			}
, 			{
				"box" : 				{
					"id" : "obj-3",
					"maxclass" : "newobj",
					"numinlets" : 0,
					"numoutlets" : 0,
					"patcher" : 					{
						"fileversion" : 1,
						"appversion" : 						{
							"major" : 8,
							"minor" : 1,
							"revision" : 11,
							"architecture" : "x64",
							"modernui" : 1
						}
,
						"classnamespace" : "box",
						"rect" : [ 34.0, 113.0, 773.0, 779.0 ],
						"bglocked" : 0,
						"openinpresentation" : 0,
						"default_fontsize" : 12.0,
						"default_fontface" : 0,
						"default_fontname" : "Arial",
						"gridonopen" : 1,
						"gridsize" : [ 15.0, 15.0 ],
						"gridsnaponopen" : 1,
						"objectsnaponopen" : 1,
						"statusbarvisible" : 2,
						"toolbarvisible" : 1,
						"lefttoolbarpinned" : 0,
						"toptoolbarpinned" : 0,
						"righttoolbarpinned" : 0,
						"bottomtoolbarpinned" : 0,
						"toolbars_unpinned_last_save" : 0,
						"tallnewobj" : 0,
						"boxanimatetime" : 200,
						"enablehscroll" : 1,
						"enablevscroll" : 1,
						"devicewidth" : 0.0,
						"description" : "",
						"digest" : "",
						"tags" : "",
						"style" : "",
						"subpatcher_template" : "Default Max 7",
						"showontab" : 1,
						"assistshowspatchername" : 0,
						"boxes" : [ 							{
								"box" : 								{
									"id" : "obj-40",
									"maxclass" : "newobj",
									"numinlets" : 0,
									"numoutlets" : 1,
									"outlettype" : [ "" ],
									"patching_rect" : [ 139.0, 136.0, 98.0, 22.0 ],
									"text" : "r MySoundworks"
								}

							}
, 							{
								"box" : 								{
									"id" : "obj-46",
									"maxclass" : "dict.view",
									"numinlets" : 1,
									"numoutlets" : 0,
									"patching_rect" : [ 101.0, 360.0, 100.0, 100.0 ]
								}

							}
, 							{
								"box" : 								{
									"id" : "obj-45",
									"maxclass" : "button",
									"numinlets" : 1,
									"numoutlets" : 1,
									"outlettype" : [ "bang" ],
									"parameter_enable" : 0,
									"patching_rect" : [ 669.0, 506.0, 24.0, 24.0 ]
								}

							}
, 							{
								"box" : 								{
									"id" : "obj-30",
									"maxclass" : "message",
									"numinlets" : 2,
									"numoutlets" : 1,
									"outlettype" : [ "" ],
									"patching_rect" : [ 425.0, 173.0, 61.0, 22.0 ],
									"text" : "getValues"
								}

							}
, 							{
								"box" : 								{
									"id" : "obj-36",
									"maxclass" : "newobj",
									"numinlets" : 1,
									"numoutlets" : 0,
									"patching_rect" : [ 745.333333333333371, 541.0, 129.0, 22.0 ],
									"text" : "s globals.sw.getValues"
								}

							}
, 							{
								"box" : 								{
									"id" : "obj-31",
									"maxclass" : "newobj",
									"numinlets" : 1,
									"numoutlets" : 2,
									"outlettype" : [ "bang", "bang" ],
									"patching_rect" : [ 745.333333333333371, 369.0, 32.0, 22.0 ],
									"text" : "t b b"
								}

							}
, 							{
								"box" : 								{
									"id" : "obj-279",
									"maxclass" : "newobj",
									"numinlets" : 1,
									"numoutlets" : 1,
									"outlettype" : [ "" ],
									"patching_rect" : [ 458.0, 377.0, 83.0, 22.0 ],
									"saved_object_attributes" : 									{
										"filename" : "parseDict.js",
										"parameter_enable" : 0
									}
,
									"text" : "js parseDict.js"
								}

							}
, 							{
								"box" : 								{
									"id" : "obj-8",
									"linecount" : 4,
									"maxclass" : "comment",
									"numinlets" : 1,
									"numoutlets" : 0,
									"patching_rect" : [ 40.0, 254.0, 150.0, 60.0 ],
									"text" : "@note : really cool example would be to generate a GUI from the schema :)"
								}

							}
, 							{
								"box" : 								{
									"fontname" : "Arial",
									"fontsize" : 13.0,
									"id" : "obj-24",
									"maxclass" : "comment",
									"numinlets" : 1,
									"numoutlets" : 0,
									"patching_rect" : [ 10.0, 55.0, 302.0, 21.0 ],
									"text" : "a way to communicate with Soundworks via OSC"
								}

							}
, 							{
								"box" : 								{
									"fontname" : "Arial",
									"fontsize" : 13.0,
									"id" : "obj-63",
									"maxclass" : "comment",
									"numinlets" : 1,
									"numoutlets" : 0,
									"patching_rect" : [ 10.0, 81.0, 455.0, 21.0 ],
									"text" : "Schemas properties",
									"textcolor" : [ 0.501961, 0.501961, 0.501961, 1.0 ]
								}

							}
, 							{
								"box" : 								{
									"border" : 0,
									"filename" : "helpdetails.js",
									"id" : "obj-11",
									"ignoreclick" : 1,
									"jsarguments" : [ "Soundworks API" ],
									"maxclass" : "jsui",
									"numinlets" : 1,
									"numoutlets" : 1,
									"outlettype" : [ "" ],
									"parameter_enable" : 0,
									"patching_rect" : [ 10.0, 10.0, 359.0, 53.0 ]
								}

							}
, 							{
								"box" : 								{
									"id" : "obj-5",
									"maxclass" : "newobj",
									"numinlets" : 2,
									"numoutlets" : 4,
									"outlettype" : [ "dictionary", "", "", "" ],
									"patching_rect" : [ 502.0, 68.0, 101.0, 22.0 ],
									"saved_object_attributes" : 									{
										"embed" : 0,
										"parameter_enable" : 0,
										"parameter_mappable" : 0
									}
,
									"text" : "dict globals_infos"
								}

							}
, 							{
								"box" : 								{
									"bubble" : 1,
									"id" : "obj-4",
									"maxclass" : "comment",
									"numinlets" : 1,
									"numoutlets" : 0,
									"patching_rect" : [ 605.0, 68.0, 257.0, 24.0 ],
									"text" : "this dict is named <schema_name>_infos"
								}

							}
, 							{
								"box" : 								{
									"bubble" : 1,
									"id" : "obj-3",
									"maxclass" : "comment",
									"numinlets" : 1,
									"numoutlets" : 0,
									"patching_rect" : [ 226.0, 212.0, 181.0, 24.0 ],
									"text" : "double click me !"
								}

							}
, 							{
								"box" : 								{
									"id" : "obj-1",
									"maxclass" : "dict.view",
									"numinlets" : 1,
									"numoutlets" : 0,
									"patching_rect" : [ 202.0, 247.0, 169.0, 208.0 ]
								}

							}
, 							{
								"box" : 								{
									"id" : "obj-2",
									"maxclass" : "message",
									"numinlets" : 2,
									"numoutlets" : 1,
									"outlettype" : [ "" ],
									"patching_rect" : [ 87.0, 170.0, 69.0, 22.0 ],
									"text" : "getSchema"
								}

							}
, 							{
								"box" : 								{
									"bubble" : 1,
									"id" : "obj-6",
									"maxclass" : "comment",
									"numinlets" : 1,
									"numoutlets" : 0,
									"patching_rect" : [ 162.0, 168.0, 181.0, 24.0 ],
									"text" : "see properties of a schema"
								}

							}
, 							{
								"box" : 								{
									"id" : "obj-28",
									"maxclass" : "newobj",
									"numinlets" : 1,
									"numoutlets" : 2,
									"outlettype" : [ "", "" ],
									"patching_rect" : [ 87.0, 212.0, 134.0, 22.0 ],
									"text" : "sw.shared-state globals"
								}

							}
 ],
						"lines" : [ 							{
								"patchline" : 								{
									"destination" : [ "obj-28", 0 ],
									"source" : [ "obj-2", 0 ]
								}

							}
, 							{
								"patchline" : 								{
									"destination" : [ "obj-1", 0 ],
									"order" : 1,
									"source" : [ "obj-28", 1 ]
								}

							}
, 							{
								"patchline" : 								{
									"destination" : [ "obj-279", 0 ],
									"order" : 0,
									"source" : [ "obj-28", 1 ]
								}

							}
, 							{
								"patchline" : 								{
									"destination" : [ "obj-46", 0 ],
									"source" : [ "obj-28", 0 ]
								}

							}
, 							{
								"patchline" : 								{
									"destination" : [ "obj-28", 0 ],
									"source" : [ "obj-30", 0 ]
								}

							}
, 							{
								"patchline" : 								{
									"destination" : [ "obj-36", 0 ],
									"source" : [ "obj-31", 0 ]
								}

							}
, 							{
								"patchline" : 								{
									"destination" : [ "obj-28", 0 ],
									"source" : [ "obj-40", 0 ]
								}

							}
, 							{
								"patchline" : 								{
									"destination" : [ "obj-36", 0 ],
									"source" : [ "obj-45", 0 ]
								}

							}
 ],
						"styles" : [ 							{
								"name" : "default_style",
								"newobj" : 								{
									"textcolor_inverse" : [ 0.0, 0.0, 0.0, 1.0 ],
									"accentcolor" : [ 0.65098, 0.666667, 0.662745, 1.0 ],
									"bgcolor" : [ 1.0, 1.0, 1.0, 1.0 ]
								}
,
								"button" : 								{
									"color" : [ 0.960784, 0.827451, 0.156863, 1.0 ],
									"bgcolor" : [ 0.682032, 0.698052, 0.748716, 1.0 ]
								}
,
								"toggle" : 								{
									"color" : [ 0.0, 0.0, 0.0, 1.0 ],
									"bgcolor" : [ 0.636487, 0.648652, 0.683149, 1.0 ],
									"elementcolor" : [ 0.786675, 0.801885, 0.845022, 1.0 ]
								}
,
								"parentstyle" : "",
								"multi" : 1
							}
, 							{
								"name" : "default_style-1",
								"newobj" : 								{
									"textcolor_inverse" : [ 0.0, 0.0, 0.0, 1.0 ],
									"accentcolor" : [ 0.65098, 0.666667, 0.662745, 1.0 ],
									"bgcolor" : [ 1.0, 1.0, 1.0, 1.0 ]
								}
,
								"button" : 								{
									"color" : [ 0.960784, 0.827451, 0.156863, 1.0 ],
									"bgcolor" : [ 0.682032, 0.698052, 0.748716, 1.0 ]
								}
,
								"toggle" : 								{
									"color" : [ 0.0, 0.0, 0.0, 1.0 ],
									"bgcolor" : [ 0.636487, 0.648652, 0.683149, 1.0 ],
									"elementcolor" : [ 0.786675, 0.801885, 0.845022, 1.0 ]
								}
,
								"parentstyle" : "",
								"multi" : 0
							}
, 							{
								"name" : "master_style",
								"message" : 								{
									"textcolor_inverse" : [ 0.0, 0.0, 0.0, 1.0 ],
									"bgfillcolor" : 									{
										"type" : "gradient",
										"color1" : [ 0.786675, 0.801885, 0.845022, 1.0 ],
										"color2" : [ 0.65098, 0.666667, 0.662745, 1.0 ],
										"color" : [ 0.290196, 0.309804, 0.301961, 1.0 ],
										"angle" : 270.0,
										"proportion" : 0.39,
										"autogradient" : 0
									}

								}
,
								"attrui" : 								{
									"textcolor_inverse" : [ 0.0, 0.0, 0.0, 1.0 ],
									"bgcolor" : [ 0.786675, 0.801885, 0.845022, 1.0 ]
								}
,
								"newobj" : 								{
									"textcolor_inverse" : [ 0.0, 0.0, 0.0, 1.0 ],
									"accentcolor" : [ 0.65098, 0.666667, 0.662745, 1.0 ],
									"bgcolor" : [ 1.0, 1.0, 1.0, 1.0 ]
								}
,
								"umenu" : 								{
									"bgfillcolor" : 									{
										"type" : "gradient",
										"color1" : [ 0.786675, 0.801885, 0.845022, 1.0 ],
										"color2" : [ 0.65098, 0.666667, 0.662745, 1.0 ],
										"color" : [ 0.290196, 0.309804, 0.301961, 1.0 ],
										"angle" : 270.0,
										"proportion" : 0.39,
										"autogradient" : 0
									}

								}
,
								"ezadc~" : 								{
									"color" : [ 0.0, 0.0, 0.0, 1.0 ],
									"bgcolor" : [ 0.65098, 0.666667, 0.662745, 1.0 ],
									"elementcolor" : [ 0.862745, 0.870588, 0.878431, 1.0 ]
								}
,
								"kslider" : 								{
									"color" : [ 1.0, 1.0, 1.0, 1.0 ],
									"elementcolor" : [ 0.65098, 0.666667, 0.662745, 1.0 ]
								}
,
								"slider" : 								{
									"color" : [ 0.461105, 0.492646, 0.591878, 1.0 ],
									"bgcolor" : [ 1.0, 1.0, 1.0, 1.0 ],
									"elementcolor" : [ 0.65098, 0.666667, 0.662745, 1.0 ]
								}
,
								"ezdac~" : 								{
									"color" : [ 0.0, 0.0, 0.0, 1.0 ],
									"bgcolor" : [ 0.65098, 0.666667, 0.662745, 1.0 ],
									"elementcolor" : [ 0.862745, 0.870588, 0.878431, 1.0 ]
								}
,
								"button" : 								{
									"color" : [ 1.0, 0.95051, 0.0, 1.0 ],
									"bgcolor" : [ 0.682032, 0.698052, 0.748716, 1.0 ],
									"elementcolor" : [ 0.786675, 0.801885, 0.845022, 1.0 ]
								}
,
								"function" : 								{
									"color" : [ 0.0, 0.0, 0.0, 1.0 ],
									"bgcolor" : [ 0.65098, 0.666667, 0.662745, 1.0 ]
								}
,
								"multislider" : 								{
									"color" : [ 0.0, 0.0, 0.0, 1.0 ],
									"bgcolor" : [ 1.0, 1.0, 1.0, 1.0 ]
								}
,
								"toggle" : 								{
									"color" : [ 0.0, 0.0, 0.0, 1.0 ],
									"bgcolor" : [ 0.682032, 0.698052, 0.748716, 1.0 ],
									"elementcolor" : [ 0.65098, 0.666667, 0.662745, 1.0 ]
								}
,
								"gain~" : 								{
									"color" : [ 1.0, 0.861448, 0.16921, 1.0 ],
									"elementcolor" : [ 0.65098, 0.666667, 0.662745, 1.0 ]
								}
,
								"parentstyle" : "",
								"multi" : 1
							}
 ]
					}
,
					"patching_rect" : [ 672.0, 86.0, 132.0, 22.0 ],
					"saved_object_attributes" : 					{
						"description" : "",
						"digest" : "",
						"globalpatchername" : "",
						"tags" : ""
					}
,
					"text" : "p \"schemas properties\""
				}

			}
, 			{
				"box" : 				{
					"bubble" : 1,
					"id" : "obj-12",
					"maxclass" : "comment",
					"numinlets" : 1,
					"numoutlets" : 0,
					"patching_rect" : [ 195.0, 199.0, 260.0, 24.0 ],
					"text" : "args : @ip @portsend @portrecv"
				}

			}
, 			{
				"box" : 				{
					"bubble" : 1,
					"bubbleside" : 2,
					"id" : "obj-10",
					"linecount" : 3,
					"maxclass" : "comment",
					"numinlets" : 1,
					"numoutlets" : 0,
					"patching_rect" : [ 70.5, 121.5, 147.0, 66.0 ],
					"text" : "The first thing to do is to create a StateManager object (and only one!)"
				}

			}
, 			{
				"box" : 				{
					"color" : [ 1.0, 0.0, 0.0, 1.0 ],
					"id" : "obj-5",
					"maxclass" : "newobj",
					"numinlets" : 0,
					"numoutlets" : 1,
					"outlettype" : [ "int" ],
					"patching_rect" : [ 74.5, 199.0, 103.0, 22.0 ],
					"text" : "sw.state-manager"
				}

			}
, 			{
				"box" : 				{
					"fontname" : "Arial",
					"fontsize" : 13.0,
					"id" : "obj-24",
					"maxclass" : "comment",
					"numinlets" : 1,
					"numoutlets" : 0,
					"patching_rect" : [ 10.0, 55.0, 302.0, 21.0 ],
					"text" : "a way to communicate with Soundworks via OSC"
				}

			}
, 			{
				"box" : 				{
					"fontname" : "Arial",
					"fontsize" : 13.0,
					"id" : "obj-18",
					"maxclass" : "comment",
					"numinlets" : 1,
					"numoutlets" : 0,
					"patching_rect" : [ 10.0, 81.0, 455.0, 21.0 ],
					"text" : "Overview",
					"textcolor" : [ 0.501961, 0.501961, 0.501961, 1.0 ]
				}

			}
, 			{
				"box" : 				{
					"border" : 0,
					"filename" : "helpdetails.js",
					"id" : "obj-11",
					"ignoreclick" : 1,
					"jsarguments" : [ "Soundworks API" ],
					"maxclass" : "jsui",
					"numinlets" : 1,
					"numoutlets" : 1,
					"outlettype" : [ "" ],
					"parameter_enable" : 0,
					"patching_rect" : [ 10.0, 10.0, 359.0, 53.0 ]
				}

			}
, 			{
				"box" : 				{
					"id" : "obj-1",
					"maxclass" : "newobj",
					"numinlets" : 0,
					"numoutlets" : 0,
					"patcher" : 					{
						"fileversion" : 1,
						"appversion" : 						{
							"major" : 8,
							"minor" : 1,
							"revision" : 11,
							"architecture" : "x64",
							"modernui" : 1
						}
,
						"classnamespace" : "box",
						"rect" : [ 0.0, 26.0, 773.0, 779.0 ],
						"bglocked" : 0,
						"openinpresentation" : 0,
						"default_fontsize" : 12.0,
						"default_fontface" : 0,
						"default_fontname" : "Arial",
						"gridonopen" : 1,
						"gridsize" : [ 15.0, 15.0 ],
						"gridsnaponopen" : 1,
						"objectsnaponopen" : 1,
						"statusbarvisible" : 2,
						"toolbarvisible" : 1,
						"lefttoolbarpinned" : 0,
						"toptoolbarpinned" : 0,
						"righttoolbarpinned" : 0,
						"bottomtoolbarpinned" : 0,
						"toolbars_unpinned_last_save" : 0,
						"tallnewobj" : 0,
						"boxanimatetime" : 200,
						"enablehscroll" : 1,
						"enablevscroll" : 1,
						"devicewidth" : 0.0,
						"description" : "",
						"digest" : "",
						"tags" : "",
						"style" : "",
						"subpatcher_template" : "Default Max 7",
						"showontab" : 1,
						"assistshowspatchername" : 0,
						"boxes" : [ 							{
								"box" : 								{
									"fontname" : "Arial",
									"fontsize" : 13.0,
									"id" : "obj-24",
									"maxclass" : "comment",
									"numinlets" : 1,
									"numoutlets" : 0,
									"patching_rect" : [ 10.0, 55.0, 302.0, 21.0 ],
									"text" : "a way to communicate with Soundworks via OSC"
								}

							}
, 							{
								"box" : 								{
									"fontname" : "Arial",
									"fontsize" : 13.0,
									"id" : "obj-63",
									"maxclass" : "comment",
									"numinlets" : 1,
									"numoutlets" : 0,
									"patching_rect" : [ 10.0, 81.0, 455.0, 21.0 ],
									"text" : "Working with states - the \"message\" way",
									"textcolor" : [ 0.501961, 0.501961, 0.501961, 1.0 ]
								}

							}
, 							{
								"box" : 								{
									"border" : 0,
									"filename" : "helpdetails.js",
									"id" : "obj-11",
									"ignoreclick" : 1,
									"jsarguments" : [ "Soundworks API" ],
									"maxclass" : "jsui",
									"numinlets" : 1,
									"numoutlets" : 1,
									"outlettype" : [ "" ],
									"parameter_enable" : 0,
									"patching_rect" : [ 10.0, 10.0, 359.0, 53.0 ]
								}

							}
, 							{
								"box" : 								{
									"id" : "obj-52",
									"maxclass" : "dict.view",
									"numinlets" : 1,
									"numoutlets" : 0,
									"patching_rect" : [ 385.100000000000023, 523.5, 100.0, 100.0 ]
								}

							}
, 							{
								"box" : 								{
									"id" : "obj-50",
									"linecount" : 2,
									"maxclass" : "message",
									"numinlets" : 2,
									"numoutlets" : 1,
									"outlettype" : [ "" ],
									"patching_rect" : [ 331.0, 523.5, 50.0, 35.0 ],
									"text" : "my-message"
								}

							}
, 							{
								"box" : 								{
									"format" : 6,
									"id" : "obj-47",
									"maxclass" : "flonum",
									"numinlets" : 1,
									"numoutlets" : 2,
									"outlettype" : [ "", "bang" ],
									"parameter_enable" : 0,
									"patching_rect" : [ 275.0, 523.5, 50.0, 22.0 ]
								}

							}
, 							{
								"box" : 								{
									"id" : "obj-45",
									"maxclass" : "toggle",
									"numinlets" : 1,
									"numoutlets" : 1,
									"outlettype" : [ "int" ],
									"parameter_enable" : 0,
									"patching_rect" : [ 243.5, 523.5, 22.0, 22.0 ]
								}

							}
, 							{
								"box" : 								{
									"id" : "obj-43",
									"maxclass" : "number",
									"numinlets" : 1,
									"numoutlets" : 2,
									"outlettype" : [ "", "bang" ],
									"parameter_enable" : 0,
									"patching_rect" : [ 187.0, 523.5, 50.0, 22.0 ]
								}

							}
, 							{
								"box" : 								{
									"id" : "obj-41",
									"maxclass" : "toggle",
									"numinlets" : 1,
									"numoutlets" : 1,
									"outlettype" : [ "int" ],
									"parameter_enable" : 0,
									"patching_rect" : [ 23.0, 314.0, 24.0, 24.0 ]
								}

							}
, 							{
								"box" : 								{
									"id" : "obj-39",
									"maxclass" : "message",
									"numinlets" : 2,
									"numoutlets" : 1,
									"outlettype" : [ "" ],
									"patching_rect" : [ 23.0, 347.0, 59.0, 22.0 ],
									"text" : "mute : $1"
								}

							}
, 							{
								"box" : 								{
									"format" : 6,
									"id" : "obj-35",
									"maxclass" : "flonum",
									"numinlets" : 1,
									"numoutlets" : 2,
									"outlettype" : [ "", "bang" ],
									"parameter_enable" : 0,
									"patching_rect" : [ 23.0, 401.5, 50.0, 22.0 ]
								}

							}
, 							{
								"box" : 								{
									"id" : "obj-31",
									"maxclass" : "newobj",
									"numinlets" : 6,
									"numoutlets" : 6,
									"outlettype" : [ "", "", "", "", "", "" ],
									"patching_rect" : [ 223.5, 482.0, 221.0, 22.0 ],
									"text" : "route volume mute gain message config"
								}

							}
, 							{
								"box" : 								{
									"id" : "obj-29",
									"maxclass" : "newobj",
									"numinlets" : 1,
									"numoutlets" : 1,
									"outlettype" : [ "" ],
									"patching_rect" : [ 223.5, 443.0, 47.0, 22.0 ],
									"text" : "dict.iter"
								}

							}
, 							{
								"box" : 								{
									"bubble" : 1,
									"id" : "obj-25",
									"maxclass" : "comment",
									"numinlets" : 1,
									"numoutlets" : 0,
									"patching_rect" : [ 288.0, 443.0, 181.0, 24.0 ],
									"text" : "handle state updates"
								}

							}
, 							{
								"box" : 								{
									"fontname" : "Arial",
									"fontsize" : 13.0,
									"id" : "obj-23",
									"maxclass" : "comment",
									"numinlets" : 1,
									"numoutlets" : 0,
									"patching_rect" : [ 492.5, 242.0, 302.0, 21.0 ],
									"text" : "....other messages"
								}

							}
, 							{
								"box" : 								{
									"id" : "obj-21",
									"maxclass" : "comment",
									"numinlets" : 1,
									"numoutlets" : 0,
									"patching_rect" : [ 79.0, 229.0, 48.0, 20.0 ],
									"text" : "[-80, 6]"
								}

							}
, 							{
								"box" : 								{
									"id" : "obj-20",
									"maxclass" : "comment",
									"numinlets" : 1,
									"numoutlets" : 0,
									"patching_rect" : [ 79.0, 401.5, 41.0, 20.0 ],
									"text" : "[0, 1]"
								}

							}
, 							{
								"box" : 								{
									"id" : "obj-16",
									"maxclass" : "message",
									"numinlets" : 2,
									"numoutlets" : 1,
									"outlettype" : [ "" ],
									"patching_rect" : [ 23.0, 482.5, 48.0, 22.0 ],
									"text" : "my-text"
								}

							}
, 							{
								"box" : 								{
									"bubble" : 1,
									"bubbleside" : 2,
									"id" : "obj-14",
									"linecount" : 2,
									"maxclass" : "comment",
									"numinlets" : 1,
									"numoutlets" : 0,
									"patching_rect" : [ 292.5, 152.0, 131.0, 52.0 ],
									"text" : "update sevaral values at once"
								}

							}
, 							{
								"box" : 								{
									"id" : "obj-10",
									"maxclass" : "message",
									"numinlets" : 2,
									"numoutlets" : 1,
									"outlettype" : [ "" ],
									"patching_rect" : [ 23.0, 515.5, 81.0, 22.0 ],
									"text" : "message : $1"
								}

							}
, 							{
								"box" : 								{
									"id" : "obj-3",
									"maxclass" : "message",
									"numinlets" : 2,
									"numoutlets" : 1,
									"outlettype" : [ "" ],
									"patching_rect" : [ 23.0, 432.5, 55.0, 22.0 ],
									"text" : "gain : $1"
								}

							}
, 							{
								"box" : 								{
									"id" : "obj-104",
									"maxclass" : "newobj",
									"numinlets" : 6,
									"numoutlets" : 1,
									"outlettype" : [ "" ],
									"patching_rect" : [ 642.0, 542.0, 101.0, 22.0 ],
									"text" : "scale -80 6 0 127"
								}

							}
, 							{
								"box" : 								{
									"id" : "obj-103",
									"maxclass" : "slider",
									"numinlets" : 1,
									"numoutlets" : 1,
									"outlettype" : [ "" ],
									"parameter_enable" : 0,
									"patching_rect" : [ 642.0, 584.0, 177.0, 26.0 ]
								}

							}
, 							{
								"box" : 								{
									"id" : "obj-99",
									"maxclass" : "newobj",
									"numinlets" : 2,
									"numoutlets" : 2,
									"outlettype" : [ "", "" ],
									"patching_rect" : [ 642.0, 506.0, 51.0, 22.0 ],
									"text" : "zl mth 2"
								}

							}
, 							{
								"box" : 								{
									"id" : "obj-98",
									"linecount" : 6,
									"maxclass" : "message",
									"numinlets" : 2,
									"numoutlets" : 1,
									"outlettype" : [ "" ],
									"patching_rect" : [ 521.0, 506.0, 104.0, 89.0 ],
									"text" : "volume : -54 mute : 0 gain : 0.5 message : my-message config : { a : 1 b : 1 }"
								}

							}
, 							{
								"box" : 								{
									"id" : "obj-96",
									"maxclass" : "newobj",
									"numinlets" : 1,
									"numoutlets" : 1,
									"outlettype" : [ "" ],
									"patching_rect" : [ 606.0, 443.0, 75.0, 22.0 ],
									"text" : "dict.serialize"
								}

							}
, 							{
								"box" : 								{
									"id" : "obj-56",
									"maxclass" : "message",
									"numinlets" : 2,
									"numoutlets" : 1,
									"outlettype" : [ "" ],
									"patching_rect" : [ 725.5, 337.0, 69.0, 22.0 ],
									"text" : "getSchema"
								}

							}
, 							{
								"box" : 								{
									"bubble" : 1,
									"bubbleside" : 2,
									"id" : "obj-8",
									"linecount" : 2,
									"maxclass" : "comment",
									"numinlets" : 1,
									"numoutlets" : 0,
									"patching_rect" : [ 630.5, 269.0, 254.0, 52.0 ],
									"text" : "ask for the schema (the formal definition of the parameters) of the state"
								}

							}
, 							{
								"box" : 								{
									"bubble" : 1,
									"bubbleside" : 2,
									"id" : "obj-71",
									"linecount" : 2,
									"maxclass" : "comment",
									"numinlets" : 1,
									"numoutlets" : 0,
									"patching_rect" : [ 492.5, 269.0, 126.0, 52.0 ],
									"text" : "ask for the state's current values"
								}

							}
, 							{
								"box" : 								{
									"bubble" : 1,
									"id" : "obj-54",
									"maxclass" : "comment",
									"numinlets" : 1,
									"numoutlets" : 0,
									"patching_rect" : [ 844.0, 455.5, 181.0, 24.0 ],
									"text" : "schema definition"
								}

							}
, 							{
								"box" : 								{
									"id" : "obj-53",
									"maxclass" : "dict.view",
									"numinlets" : 1,
									"numoutlets" : 0,
									"patching_rect" : [ 725.5, 421.0, 105.0, 84.0 ]
								}

							}
, 							{
								"box" : 								{
									"format" : 6,
									"id" : "obj-37",
									"maxclass" : "flonum",
									"numinlets" : 1,
									"numoutlets" : 2,
									"outlettype" : [ "", "bang" ],
									"parameter_enable" : 0,
									"patching_rect" : [ 362.5, 223.0, 50.0, 22.0 ]
								}

							}
, 							{
								"box" : 								{
									"id" : "obj-30",
									"maxclass" : "number",
									"numinlets" : 1,
									"numoutlets" : 2,
									"outlettype" : [ "", "bang" ],
									"parameter_enable" : 0,
									"patching_rect" : [ 300.5, 222.0, 50.0, 22.0 ]
								}

							}
, 							{
								"box" : 								{
									"id" : "obj-26",
									"maxclass" : "newobj",
									"numinlets" : 2,
									"numoutlets" : 1,
									"outlettype" : [ "" ],
									"patching_rect" : [ 300.5, 259.0, 41.0, 22.0 ],
									"text" : "pak f f"
								}

							}
, 							{
								"box" : 								{
									"id" : "obj-17",
									"maxclass" : "message",
									"numinlets" : 2,
									"numoutlets" : 1,
									"outlettype" : [ "" ],
									"patching_rect" : [ 300.5, 296.0, 120.0, 22.0 ],
									"text" : "volume : $1 gain : $2"
								}

							}
, 							{
								"box" : 								{
									"id" : "obj-4",
									"maxclass" : "number",
									"numinlets" : 1,
									"numoutlets" : 2,
									"outlettype" : [ "", "bang" ],
									"parameter_enable" : 0,
									"patching_rect" : [ 23.0, 229.0, 50.0, 22.0 ]
								}

							}
, 							{
								"box" : 								{
									"id" : "obj-9",
									"maxclass" : "message",
									"numinlets" : 2,
									"numoutlets" : 1,
									"outlettype" : [ "" ],
									"patching_rect" : [ 525.0, 337.0, 61.0, 22.0 ],
									"text" : "getValues"
								}

							}
, 							{
								"box" : 								{
									"bubble" : 1,
									"bubbleside" : 2,
									"id" : "obj-5",
									"linecount" : 3,
									"maxclass" : "comment",
									"numinlets" : 1,
									"numoutlets" : 0,
									"patching_rect" : [ 23.0, 152.0, 128.0, 66.0 ],
									"text" : "send \"key : value\" pairs to communicate with a state..."
								}

							}
, 							{
								"box" : 								{
									"id" : "obj-2",
									"maxclass" : "message",
									"numinlets" : 2,
									"numoutlets" : 1,
									"outlettype" : [ "" ],
									"patching_rect" : [ 23.0, 262.0, 71.0, 22.0 ],
									"text" : "volume : $1"
								}

							}
, 							{
								"box" : 								{
									"bubble" : 1,
									"id" : "obj-6",
									"linecount" : 3,
									"maxclass" : "comment",
									"numinlets" : 1,
									"numoutlets" : 0,
									"patching_rect" : [ 844.0, 372.5, 181.0, 51.0 ],
									"text" : "you can attach to a state creating sw.sharedState <schema> "
								}

							}
, 							{
								"box" : 								{
									"color" : [ 0.0, 0.803921568627451, 1.0, 1.0 ],
									"id" : "obj-28",
									"maxclass" : "newobj",
									"numinlets" : 1,
									"numoutlets" : 2,
									"outlettype" : [ "", "" ],
									"patching_rect" : [ 303.0, 387.0, 527.5, 22.0 ],
									"text" : "sw.shared-state globals"
								}

							}
 ],
						"lines" : [ 							{
								"patchline" : 								{
									"destination" : [ "obj-28", 0 ],
									"source" : [ "obj-10", 0 ]
								}

							}
, 							{
								"patchline" : 								{
									"destination" : [ "obj-103", 0 ],
									"source" : [ "obj-104", 0 ]
								}

							}
, 							{
								"patchline" : 								{
									"destination" : [ "obj-10", 0 ],
									"source" : [ "obj-16", 0 ]
								}

							}
, 							{
								"patchline" : 								{
									"destination" : [ "obj-28", 0 ],
									"source" : [ "obj-17", 0 ]
								}

							}
, 							{
								"patchline" : 								{
									"destination" : [ "obj-28", 0 ],
									"source" : [ "obj-2", 0 ]
								}

							}
, 							{
								"patchline" : 								{
									"destination" : [ "obj-17", 0 ],
									"source" : [ "obj-26", 0 ]
								}

							}
, 							{
								"patchline" : 								{
									"destination" : [ "obj-29", 0 ],
									"midpoints" : [ 312.5, 425.5, 233.0, 425.5 ],
									"order" : 1,
									"source" : [ "obj-28", 0 ]
								}

							}
, 							{
								"patchline" : 								{
									"destination" : [ "obj-53", 0 ],
									"source" : [ "obj-28", 1 ]
								}

							}
, 							{
								"patchline" : 								{
									"destination" : [ "obj-96", 0 ],
									"midpoints" : [ 312.5, 425.5, 615.5, 425.5 ],
									"order" : 0,
									"source" : [ "obj-28", 0 ]
								}

							}
, 							{
								"patchline" : 								{
									"destination" : [ "obj-31", 0 ],
									"source" : [ "obj-29", 0 ]
								}

							}
, 							{
								"patchline" : 								{
									"destination" : [ "obj-28", 0 ],
									"source" : [ "obj-3", 0 ]
								}

							}
, 							{
								"patchline" : 								{
									"destination" : [ "obj-26", 0 ],
									"source" : [ "obj-30", 0 ]
								}

							}
, 							{
								"patchline" : 								{
									"destination" : [ "obj-43", 0 ],
									"source" : [ "obj-31", 0 ]
								}

							}
, 							{
								"patchline" : 								{
									"destination" : [ "obj-45", 0 ],
									"source" : [ "obj-31", 1 ]
								}

							}
, 							{
								"patchline" : 								{
									"destination" : [ "obj-47", 0 ],
									"source" : [ "obj-31", 2 ]
								}

							}
, 							{
								"patchline" : 								{
									"destination" : [ "obj-50", 1 ],
									"source" : [ "obj-31", 3 ]
								}

							}
, 							{
								"patchline" : 								{
									"destination" : [ "obj-52", 0 ],
									"source" : [ "obj-31", 4 ]
								}

							}
, 							{
								"patchline" : 								{
									"destination" : [ "obj-3", 0 ],
									"source" : [ "obj-35", 0 ]
								}

							}
, 							{
								"patchline" : 								{
									"destination" : [ "obj-26", 1 ],
									"source" : [ "obj-37", 0 ]
								}

							}
, 							{
								"patchline" : 								{
									"destination" : [ "obj-28", 0 ],
									"source" : [ "obj-39", 0 ]
								}

							}
, 							{
								"patchline" : 								{
									"destination" : [ "obj-2", 0 ],
									"source" : [ "obj-4", 0 ]
								}

							}
, 							{
								"patchline" : 								{
									"destination" : [ "obj-39", 0 ],
									"source" : [ "obj-41", 0 ]
								}

							}
, 							{
								"patchline" : 								{
									"destination" : [ "obj-28", 0 ],
									"midpoints" : [ 735.0, 372.5, 312.5, 372.5 ],
									"source" : [ "obj-56", 0 ]
								}

							}
, 							{
								"patchline" : 								{
									"destination" : [ "obj-28", 0 ],
									"midpoints" : [ 534.5, 372.5, 312.5, 372.5 ],
									"source" : [ "obj-9", 0 ]
								}

							}
, 							{
								"patchline" : 								{
									"destination" : [ "obj-98", 1 ],
									"order" : 1,
									"source" : [ "obj-96", 0 ]
								}

							}
, 							{
								"patchline" : 								{
									"destination" : [ "obj-99", 0 ],
									"order" : 0,
									"source" : [ "obj-96", 0 ]
								}

							}
, 							{
								"patchline" : 								{
									"destination" : [ "obj-104", 0 ],
									"source" : [ "obj-99", 0 ]
								}

							}
 ],
						"styles" : [ 							{
								"name" : "default_style",
								"newobj" : 								{
									"textcolor_inverse" : [ 0.0, 0.0, 0.0, 1.0 ],
									"accentcolor" : [ 0.65098, 0.666667, 0.662745, 1.0 ],
									"bgcolor" : [ 1.0, 1.0, 1.0, 1.0 ]
								}
,
								"button" : 								{
									"color" : [ 0.960784, 0.827451, 0.156863, 1.0 ],
									"bgcolor" : [ 0.682032, 0.698052, 0.748716, 1.0 ]
								}
,
								"toggle" : 								{
									"color" : [ 0.0, 0.0, 0.0, 1.0 ],
									"bgcolor" : [ 0.636487, 0.648652, 0.683149, 1.0 ],
									"elementcolor" : [ 0.786675, 0.801885, 0.845022, 1.0 ]
								}
,
								"parentstyle" : "",
								"multi" : 1
							}
, 							{
								"name" : "default_style-1",
								"newobj" : 								{
									"textcolor_inverse" : [ 0.0, 0.0, 0.0, 1.0 ],
									"accentcolor" : [ 0.65098, 0.666667, 0.662745, 1.0 ],
									"bgcolor" : [ 1.0, 1.0, 1.0, 1.0 ]
								}
,
								"button" : 								{
									"color" : [ 0.960784, 0.827451, 0.156863, 1.0 ],
									"bgcolor" : [ 0.682032, 0.698052, 0.748716, 1.0 ]
								}
,
								"toggle" : 								{
									"color" : [ 0.0, 0.0, 0.0, 1.0 ],
									"bgcolor" : [ 0.636487, 0.648652, 0.683149, 1.0 ],
									"elementcolor" : [ 0.786675, 0.801885, 0.845022, 1.0 ]
								}
,
								"parentstyle" : "",
								"multi" : 0
							}
, 							{
								"name" : "master_style",
								"message" : 								{
									"textcolor_inverse" : [ 0.0, 0.0, 0.0, 1.0 ],
									"bgfillcolor" : 									{
										"type" : "gradient",
										"color1" : [ 0.786675, 0.801885, 0.845022, 1.0 ],
										"color2" : [ 0.65098, 0.666667, 0.662745, 1.0 ],
										"color" : [ 0.290196, 0.309804, 0.301961, 1.0 ],
										"angle" : 270.0,
										"proportion" : 0.39,
										"autogradient" : 0
									}

								}
,
								"attrui" : 								{
									"textcolor_inverse" : [ 0.0, 0.0, 0.0, 1.0 ],
									"bgcolor" : [ 0.786675, 0.801885, 0.845022, 1.0 ]
								}
,
								"newobj" : 								{
									"textcolor_inverse" : [ 0.0, 0.0, 0.0, 1.0 ],
									"accentcolor" : [ 0.65098, 0.666667, 0.662745, 1.0 ],
									"bgcolor" : [ 1.0, 1.0, 1.0, 1.0 ]
								}
,
								"umenu" : 								{
									"bgfillcolor" : 									{
										"type" : "gradient",
										"color1" : [ 0.786675, 0.801885, 0.845022, 1.0 ],
										"color2" : [ 0.65098, 0.666667, 0.662745, 1.0 ],
										"color" : [ 0.290196, 0.309804, 0.301961, 1.0 ],
										"angle" : 270.0,
										"proportion" : 0.39,
										"autogradient" : 0
									}

								}
,
								"ezadc~" : 								{
									"color" : [ 0.0, 0.0, 0.0, 1.0 ],
									"bgcolor" : [ 0.65098, 0.666667, 0.662745, 1.0 ],
									"elementcolor" : [ 0.862745, 0.870588, 0.878431, 1.0 ]
								}
,
								"kslider" : 								{
									"color" : [ 1.0, 1.0, 1.0, 1.0 ],
									"elementcolor" : [ 0.65098, 0.666667, 0.662745, 1.0 ]
								}
,
								"slider" : 								{
									"color" : [ 0.461105, 0.492646, 0.591878, 1.0 ],
									"bgcolor" : [ 1.0, 1.0, 1.0, 1.0 ],
									"elementcolor" : [ 0.65098, 0.666667, 0.662745, 1.0 ]
								}
,
								"ezdac~" : 								{
									"color" : [ 0.0, 0.0, 0.0, 1.0 ],
									"bgcolor" : [ 0.65098, 0.666667, 0.662745, 1.0 ],
									"elementcolor" : [ 0.862745, 0.870588, 0.878431, 1.0 ]
								}
,
								"button" : 								{
									"color" : [ 1.0, 0.95051, 0.0, 1.0 ],
									"bgcolor" : [ 0.682032, 0.698052, 0.748716, 1.0 ],
									"elementcolor" : [ 0.786675, 0.801885, 0.845022, 1.0 ]
								}
,
								"function" : 								{
									"color" : [ 0.0, 0.0, 0.0, 1.0 ],
									"bgcolor" : [ 0.65098, 0.666667, 0.662745, 1.0 ]
								}
,
								"multislider" : 								{
									"color" : [ 0.0, 0.0, 0.0, 1.0 ],
									"bgcolor" : [ 1.0, 1.0, 1.0, 1.0 ]
								}
,
								"toggle" : 								{
									"color" : [ 0.0, 0.0, 0.0, 1.0 ],
									"bgcolor" : [ 0.682032, 0.698052, 0.748716, 1.0 ],
									"elementcolor" : [ 0.65098, 0.666667, 0.662745, 1.0 ]
								}
,
								"gain~" : 								{
									"color" : [ 1.0, 0.861448, 0.16921, 1.0 ],
									"elementcolor" : [ 0.65098, 0.666667, 0.662745, 1.0 ]
								}
,
								"parentstyle" : "",
								"multi" : 1
							}
 ]
					}
,
					"patching_rect" : [ 671.0, 24.0, 151.0, 22.0 ],
					"saved_object_attributes" : 					{
						"description" : "",
						"digest" : "",
						"globalpatchername" : "",
						"tags" : ""
					}
,
					"text" : "p \"working with messages\""
				}

			}
 ],
		"lines" : [  ],
		"dependency_cache" : [ 			{
				"name" : "sw.shared-state.maxpat",
				"bootpath" : "~/Documents/Github/soundworks-state-manager-osc/max/SoundworksAPI/patchers",
				"patcherrelativepath" : "../patchers",
				"type" : "JSON",
				"implicit" : 1
			}
, 			{
				"name" : "jscount.js",
				"bootpath" : "~/Documents/Github/soundworks-state-manager-osc/max/SoundworksAPI/code",
				"patcherrelativepath" : "../code",
				"type" : "TEXT",
				"implicit" : 1
			}
, 			{
				"name" : "helpdetails.js",
				"bootpath" : "C74:/help/resources",
				"type" : "TEXT",
				"implicit" : 1
			}
, 			{
				"name" : "sw.state-manager.maxpat",
				"bootpath" : "~/Documents/Github/soundworks-state-manager-osc/max/SoundworksAPI/patchers",
				"patcherrelativepath" : "../patchers",
				"type" : "JSON",
				"implicit" : 1
			}
, 			{
				"name" : "sw.abs.maxpat",
				"bootpath" : "~/Documents/Github/soundworks-state-manager-osc/max/SoundworksAPI/patchers",
				"patcherrelativepath" : "../patchers",
				"type" : "JSON",
				"implicit" : 1
			}
, 			{
				"name" : "parseDict.js",
				"bootpath" : "~/Documents/Github/soundworks-state-manager-osc/max/SoundworksAPI/code",
				"patcherrelativepath" : "../code",
				"type" : "TEXT",
				"implicit" : 1
			}
 ],
		"autosave" : 0,
		"styles" : [ 			{
				"name" : "default_style",
				"newobj" : 				{
					"textcolor_inverse" : [ 0.0, 0.0, 0.0, 1.0 ],
					"accentcolor" : [ 0.65098, 0.666667, 0.662745, 1.0 ],
					"bgcolor" : [ 1.0, 1.0, 1.0, 1.0 ]
				}
,
				"button" : 				{
					"color" : [ 0.960784, 0.827451, 0.156863, 1.0 ],
					"bgcolor" : [ 0.682032, 0.698052, 0.748716, 1.0 ]
				}
,
				"toggle" : 				{
					"color" : [ 0.0, 0.0, 0.0, 1.0 ],
					"bgcolor" : [ 0.636487, 0.648652, 0.683149, 1.0 ],
					"elementcolor" : [ 0.786675, 0.801885, 0.845022, 1.0 ]
				}
,
				"parentstyle" : "",
				"multi" : 1
			}
, 			{
				"name" : "default_style-1",
				"newobj" : 				{
					"textcolor_inverse" : [ 0.0, 0.0, 0.0, 1.0 ],
					"accentcolor" : [ 0.65098, 0.666667, 0.662745, 1.0 ],
					"bgcolor" : [ 1.0, 1.0, 1.0, 1.0 ]
				}
,
				"button" : 				{
					"color" : [ 0.960784, 0.827451, 0.156863, 1.0 ],
					"bgcolor" : [ 0.682032, 0.698052, 0.748716, 1.0 ]
				}
,
				"toggle" : 				{
					"color" : [ 0.0, 0.0, 0.0, 1.0 ],
					"bgcolor" : [ 0.636487, 0.648652, 0.683149, 1.0 ],
					"elementcolor" : [ 0.786675, 0.801885, 0.845022, 1.0 ]
				}
,
				"parentstyle" : "",
				"multi" : 0
			}
, 			{
				"name" : "master_style",
				"message" : 				{
					"textcolor_inverse" : [ 0.0, 0.0, 0.0, 1.0 ],
					"bgfillcolor" : 					{
						"type" : "gradient",
						"color1" : [ 0.786675, 0.801885, 0.845022, 1.0 ],
						"color2" : [ 0.65098, 0.666667, 0.662745, 1.0 ],
						"color" : [ 0.290196, 0.309804, 0.301961, 1.0 ],
						"angle" : 270.0,
						"proportion" : 0.39,
						"autogradient" : 0
					}

				}
,
				"attrui" : 				{
					"textcolor_inverse" : [ 0.0, 0.0, 0.0, 1.0 ],
					"bgcolor" : [ 0.786675, 0.801885, 0.845022, 1.0 ]
				}
,
				"newobj" : 				{
					"textcolor_inverse" : [ 0.0, 0.0, 0.0, 1.0 ],
					"accentcolor" : [ 0.65098, 0.666667, 0.662745, 1.0 ],
					"bgcolor" : [ 1.0, 1.0, 1.0, 1.0 ]
				}
,
				"umenu" : 				{
					"bgfillcolor" : 					{
						"type" : "gradient",
						"color1" : [ 0.786675, 0.801885, 0.845022, 1.0 ],
						"color2" : [ 0.65098, 0.666667, 0.662745, 1.0 ],
						"color" : [ 0.290196, 0.309804, 0.301961, 1.0 ],
						"angle" : 270.0,
						"proportion" : 0.39,
						"autogradient" : 0
					}

				}
,
				"ezadc~" : 				{
					"color" : [ 0.0, 0.0, 0.0, 1.0 ],
					"bgcolor" : [ 0.65098, 0.666667, 0.662745, 1.0 ],
					"elementcolor" : [ 0.862745, 0.870588, 0.878431, 1.0 ]
				}
,
				"kslider" : 				{
					"color" : [ 1.0, 1.0, 1.0, 1.0 ],
					"elementcolor" : [ 0.65098, 0.666667, 0.662745, 1.0 ]
				}
,
				"slider" : 				{
					"color" : [ 0.461105, 0.492646, 0.591878, 1.0 ],
					"bgcolor" : [ 1.0, 1.0, 1.0, 1.0 ],
					"elementcolor" : [ 0.65098, 0.666667, 0.662745, 1.0 ]
				}
,
				"ezdac~" : 				{
					"color" : [ 0.0, 0.0, 0.0, 1.0 ],
					"bgcolor" : [ 0.65098, 0.666667, 0.662745, 1.0 ],
					"elementcolor" : [ 0.862745, 0.870588, 0.878431, 1.0 ]
				}
,
				"button" : 				{
					"color" : [ 1.0, 0.95051, 0.0, 1.0 ],
					"bgcolor" : [ 0.682032, 0.698052, 0.748716, 1.0 ],
					"elementcolor" : [ 0.786675, 0.801885, 0.845022, 1.0 ]
				}
,
				"function" : 				{
					"color" : [ 0.0, 0.0, 0.0, 1.0 ],
					"bgcolor" : [ 0.65098, 0.666667, 0.662745, 1.0 ]
				}
,
				"multislider" : 				{
					"color" : [ 0.0, 0.0, 0.0, 1.0 ],
					"bgcolor" : [ 1.0, 1.0, 1.0, 1.0 ]
				}
,
				"toggle" : 				{
					"color" : [ 0.0, 0.0, 0.0, 1.0 ],
					"bgcolor" : [ 0.682032, 0.698052, 0.748716, 1.0 ],
					"elementcolor" : [ 0.65098, 0.666667, 0.662745, 1.0 ]
				}
,
				"gain~" : 				{
					"color" : [ 1.0, 0.861448, 0.16921, 1.0 ],
					"elementcolor" : [ 0.65098, 0.666667, 0.662745, 1.0 ]
				}
,
				"parentstyle" : "",
				"multi" : 1
			}
 ]
	}

}
